<?xml version="1.0" encoding="UTF-8"?>
<!DOCTYPE svg PUBLIC "-//W3C//DTD SVG 1.1//EN" "http://www.w3.org/Graphics/SVG/1.1/DTD/svg11.dtd">
<svg xmlns="http://www.w3.org/2000/svg" version="1.1" width="512px" height="512px" style="shape-rendering:geometricPrecision; text-rendering:geometricPrecision; image-rendering:optimizeQuality; fill-rule:evenodd; clip-rule:evenodd" xmlns:xlink="http://www.w3.org/1999/xlink">
<g><path style="opacity:0.975" fill="#2ee5e6" d="M 217.5,30.5 C 217.5,40.5 217.5,50.5 217.5,60.5C 175.105,61.1874 136.772,73.8541 102.5,98.5C 96.2549,90.3432 90.2549,82.0099 84.5,73.5C 123.823,44.2409 168.156,29.9076 217.5,30.5 Z"/></g>
<g><path style="opacity:0.972" fill="#29b0cc" d="M 217.5,30.5 C 266.492,30.0695 310.492,44.4028 349.5,73.5C 343.745,82.0099 337.745,90.3432 331.5,98.5C 297.498,74.0549 259.498,61.3882 217.5,60.5C 217.5,50.5 217.5,40.5 217.5,30.5 Z"/></g>
<g><path style="opacity:0.972" fill="#2de5e5" d="M 217.5,90.5 C 217.5,100.5 217.5,110.5 217.5,120.5C 188.349,121.273 161.849,129.939 138,146.5C 131.335,138.987 125.169,130.987 119.5,122.5C 148.283,100.462 180.95,89.7954 217.5,90.5 Z"/></g>
<g><path style="opacity:0.972" fill="#29b1cc" d="M 217.5,90.5 C 253.684,90.0061 286.017,100.673 314.5,122.5C 308.831,130.987 302.665,138.987 296,146.5C 272.42,130.14 246.253,121.473 217.5,120.5C 217.5,110.5 217.5,100.5 217.5,90.5 Z"/></g>
<g><path style="opacity:0.994" fill="#3377ff" d="M -0.5,134.5 C 22.5,134.5 45.5,134.5 68.5,134.5C 68.5,215.167 68.5,295.833 68.5,376.5C 45.5,376.5 22.5,376.5 -0.5,376.5C -0.5,295.833 -0.5,215.167 -0.5,134.5 Z"/></g>
<g><path style="opacity:0.991" fill="#295fcb" d="M 511.5,134.5 C 511.5,157.833 511.5,181.167 511.5,204.5C 497.167,204.5 482.833,204.5 468.5,204.5C 468.5,261.833 468.5,319.167 468.5,376.5C 445.5,376.5 422.5,376.5 399.5,376.5C 399.5,319.167 399.5,261.833 399.5,204.5C 385.167,204.5 370.833,204.5 356.5,204.5C 356.5,181.167 356.5,157.833 356.5,134.5C 408.167,134.5 459.833,134.5 511.5,134.5 Z"/></g>
<g><path style="opacity:0.992" fill="#3276fe" d="M 217.5,151.5 C 217.5,174.833 217.5,198.167 217.5,221.5C 196.454,223.213 185.12,234.546 183.5,255.5C 185.12,276.454 196.454,287.787 217.5,289.5C 217.5,312.833 217.5,336.167 217.5,359.5C 172.344,357.52 140.177,336.187 121,295.5C 103.919,244.968 116.085,203.135 157.5,170C 175.636,157.963 195.636,151.796 217.5,151.5 Z"/></g>
<g><path style="opacity:0.99" fill="#295ecc" d="M 217.5,151.5 C 255.89,152.78 285.39,169.446 306,201.5C 325.333,237.5 325.333,273.5 306,309.5C 285.397,341.542 255.897,358.209 217.5,359.5C 217.5,336.167 217.5,312.833 217.5,289.5C 238.015,287.319 249.015,275.986 250.5,255.5C 249.015,235.014 238.015,223.681 217.5,221.5C 217.5,198.167 217.5,174.833 217.5,151.5 Z"/></g>
<g><path style="opacity:0.972" fill="#2de6e6" d="M 216.5,390.5 C 216.5,400.5 216.5,410.5 216.5,420.5C 180.316,420.994 147.983,410.327 119.5,388.5C 125.169,380.013 131.335,372.013 138,364.5C 161.58,380.86 187.747,389.527 216.5,390.5 Z"/></g>
<g><path style="opacity:0.974" fill="#29b1cc" d="M 216.5,420.5 C 216.5,410.5 216.5,400.5 216.5,390.5C 245.651,389.727 272.151,381.061 296,364.5C 302.665,372.013 308.831,380.013 314.5,388.5C 285.717,410.538 253.05,421.205 216.5,420.5 Z"/></g>
<g><path style="opacity:0.974" fill="#2de5e5" d="M 217.5,450.5 C 217.5,460.5 217.5,470.5 217.5,480.5C 168.156,481.092 123.823,466.759 84.5,437.5C 90.2549,428.99 96.2549,420.657 102.5,412.5C 136.772,437.146 175.105,449.813 217.5,450.5 Z"/></g>
<g><path style="opacity:0.972" fill="#29b1cc" d="M 217.5,480.5 C 217.5,470.5 217.5,460.5 217.5,450.5C 259.498,449.612 297.498,436.945 331.5,412.5C 337.745,420.657 343.745,428.99 349.5,437.5C 310.492,466.597 266.492,480.931 217.5,480.5 Z"/></g>
</svg>
