<?xml version="1.0" encoding="UTF-8"?>
<!DOCTYPE svg PUBLIC "-//W3C//DTD SVG 1.1//EN" "http://www.w3.org/Graphics/SVG/1.1/DTD/svg11.dtd">
<svg xmlns="http://www.w3.org/2000/svg" version="1.1" width="512px" height="512px" style="shape-rendering:geometricPrecision; text-rendering:geometricPrecision; image-rendering:optimizeQuality; fill-rule:evenodd; clip-rule:evenodd" xmlns:xlink="http://www.w3.org/1999/xlink">
<g><path style="opacity:0.994" fill="#8f9ed1" d="M 233.5,-0.5 C 248.5,-0.5 263.5,-0.5 278.5,-0.5C 374.372,11.559 444.205,60.559 488,146.5C 493.595,158.785 498.095,171.452 501.5,184.5C 495.106,181.647 488.439,179.48 481.5,178C 447.162,177.167 412.828,177.333 378.5,178.5C 365.628,245.4 353.294,312.4 341.5,379.5C 340.566,380.568 340.232,381.901 340.5,383.5C 355.676,383.829 370.676,383.496 385.5,382.5C 389.112,363.884 392.445,345.217 395.5,326.5C 419.529,326.904 443.529,326.404 467.5,325C 483.146,321.014 496.479,313.18 507.5,301.5C 493.484,372.978 456.484,429.145 396.5,470C 360.366,493.03 321.033,506.864 278.5,511.5C 263.5,511.5 248.5,511.5 233.5,511.5C 145.605,501.538 78.9385,458.871 33.5,383.5C 36.5,383.5 39.5,383.5 42.5,383.5C 45.8335,364.499 49.1668,345.499 52.5,326.5C 73.8359,326.667 95.1693,326.5 116.5,326C 140.465,322.607 158.965,310.773 172,290.5C 181.641,273.243 187.474,254.743 189.5,235C 186.564,203.398 169.564,184.398 138.5,178C 103.929,177.171 69.4286,177.338 35,178.5C 26.0265,226.817 17.1931,275.151 8.5,323.5C 4.20709,308.407 1.20709,293.074 -0.5,277.5C -0.5,262.833 -0.5,248.167 -0.5,233.5C 11.9821,133.195 63.9821,61.6947 155.5,19C 180.687,8.70332 206.687,2.20332 233.5,-0.5 Z"/></g>
<g><path style="opacity:1" fill="#c3cae2" d="M 219.5,123.5 C 234.324,122.504 249.324,122.171 264.5,122.5C 264.737,123.791 264.404,124.791 263.5,125.5C 249.205,123.517 234.538,122.85 219.5,123.5 Z"/></g>
<g><path style="opacity:1" fill="#f1f1f1" d="M 219.5,123.5 C 234.538,122.85 249.205,123.517 263.5,125.5C 260.22,143.125 257.22,160.792 254.5,178.5C 275.836,178.333 297.169,178.5 318.5,179C 331.732,180.693 342.232,186.86 350,197.5C 352.598,201.628 353.765,206.128 353.5,211C 353.206,215.854 352.706,220.688 352,225.5C 346.343,259.6 340.176,293.6 333.5,327.5C 318.5,327.5 303.5,327.5 288.5,327.5C 293.728,295.739 299.562,264.072 306,232.5C 307.614,222.119 303.447,215.285 293.5,212C 278.206,210.621 262.873,210.121 247.5,210.5C 240.499,249.839 233.499,289.172 226.5,328.5C 211.5,328.5 196.5,328.5 181.5,328.5C 193.916,260.088 206.583,191.754 219.5,123.5 Z"/></g>
<g><path style="opacity:1" fill="#f1f1f1" d="M 33.5,383.5 C 22.0662,364.885 13.7329,344.885 8.5,323.5C 17.1931,275.151 26.0265,226.817 35,178.5C 69.4286,177.338 103.929,177.171 138.5,178C 169.564,184.398 186.564,203.398 189.5,235C 187.474,254.743 181.641,273.243 172,290.5C 158.965,310.773 140.465,322.607 116.5,326C 95.1693,326.5 73.8359,326.667 52.5,326.5C 49.1668,345.499 45.8335,364.499 42.5,383.5C 39.5,383.5 36.5,383.5 33.5,383.5 Z"/></g>
<g><path style="opacity:1" fill="#f1f1f1" d="M 501.5,184.5 C 506.374,200.536 509.707,216.869 511.5,233.5C 511.5,248.5 511.5,263.5 511.5,278.5C 510.353,286.195 509.02,293.861 507.5,301.5C 496.479,313.18 483.146,321.014 467.5,325C 443.529,326.404 419.529,326.904 395.5,326.5C 392.445,345.217 389.112,363.884 385.5,382.5C 370.833,382.5 356.167,382.5 341.5,382.5C 341.5,381.5 341.5,380.5 341.5,379.5C 353.294,312.4 365.628,245.4 378.5,178.5C 412.828,177.333 447.162,177.167 481.5,178C 488.439,179.48 495.106,181.647 501.5,184.5 Z"/></g>
<g><path style="opacity:1" fill="#8f9ed1" d="M 100.5,294.5 C 86.8333,294.5 73.1667,294.5 59.5,294.5C 59.5,293.5 59.5,292.5 59.5,291.5C 64.3531,264.527 69.0198,237.527 73.5,210.5C 90.5348,210.125 107.535,210.625 124.5,212C 133.852,214.023 140.018,219.523 143,228.5C 145.928,252.737 138.095,272.57 119.5,288C 113.527,291.269 107.193,293.435 100.5,294.5 Z"/></g>
<g><path style="opacity:1" fill="#8f9ed1" d="M 439.5,294.5 C 426.788,295.146 414.455,294.48 402.5,292.5C 407.193,265.483 412.027,238.483 417,211.5C 431.092,210.344 445.258,210.177 459.5,211C 477.061,211.562 486.394,220.562 487.5,238C 486.905,257.184 479.571,273.184 465.5,286C 457.758,291.603 449.091,294.437 439.5,294.5 Z"/></g>
<g><path style="opacity:1" fill="#bac3df" d="M 59.5,291.5 C 59.5,292.5 59.5,293.5 59.5,294.5C 73.1667,294.5 86.8333,294.5 100.5,294.5C 86.6766,295.496 72.6766,295.829 58.5,295.5C 58.2322,293.901 58.5655,292.568 59.5,291.5 Z"/></g>
<g><path style="opacity:1" fill="#b9c1de" d="M 402.5,292.5 C 414.455,294.48 426.788,295.146 439.5,294.5C 427.011,295.495 414.344,295.829 401.5,295.5C 401.263,294.209 401.596,293.209 402.5,292.5 Z"/></g>
<g><path style="opacity:1" fill="#d8dbe9" d="M 341.5,379.5 C 341.5,380.5 341.5,381.5 341.5,382.5C 356.167,382.5 370.833,382.5 385.5,382.5C 370.676,383.496 355.676,383.829 340.5,383.5C 340.232,381.901 340.566,380.568 341.5,379.5 Z"/></g>
</svg>
