<?xml version="1.0" encoding="UTF-8"?>
<!DOCTYPE svg PUBLIC "-//W3C//DTD SVG 1.1//EN" "http://www.w3.org/Graphics/SVG/1.1/DTD/svg11.dtd">
<svg xmlns="http://www.w3.org/2000/svg" version="1.1" width="512px" height="512px" style="shape-rendering:geometricPrecision; text-rendering:geometricPrecision; image-rendering:optimizeQuality; fill-rule:evenodd; clip-rule:evenodd" xmlns:xlink="http://www.w3.org/1999/xlink">
<g><path style="opacity:0.945" fill="#4f7ab6" d="M 511.5,244.5 C 511.5,251.833 511.5,259.167 511.5,266.5C 506.098,285.096 495.764,300.596 480.5,313C 460.793,327.356 439.46,338.856 416.5,347.5C 422.648,373.278 423.815,399.278 420,425.5C 410.751,472.372 382.584,491.872 335.5,484C 318.288,479.727 302.288,472.727 287.5,463C 276.615,455.398 265.949,447.565 255.5,439.5C 238.409,453.892 219.742,466.059 199.5,476C 176.764,486.566 153.431,488.232 129.5,481C 114.031,473.917 103.198,462.417 97,446.5C 88.2109,420.046 86.2109,393.046 91,365.5C 91.7196,359.402 92.8863,353.402 94.5,347.5C 71.5399,338.856 50.2066,327.356 30.5,313C 15.2357,300.596 4.90233,285.096 -0.5,266.5C -0.5,259.167 -0.5,251.833 -0.5,244.5C 4.90233,225.904 15.2357,210.404 30.5,198C 50.2066,183.644 71.5399,172.144 94.5,163.5C 87.8044,136.003 86.9711,108.337 92,80.5C 105.005,33.7361 135.172,16.5694 182.5,29C 210.029,38.5598 234.529,53.0598 256,72.5C 277.603,52.441 302.436,37.6076 330.5,28C 379.7,17.2214 409.533,36.388 420,85.5C 423.815,111.719 422.649,137.719 416.5,163.5C 439.46,172.144 460.793,183.644 480.5,198C 495.764,210.404 506.098,225.904 511.5,244.5 Z M 149.5,57.5 C 162.5,56.7333 174.833,59.2333 186.5,65C 202.773,72.96 217.44,83.1267 230.5,95.5C 216.227,110.601 202.894,126.434 190.5,143C 168.666,145.972 147,149.805 125.5,154.5C 123.178,141.105 121.845,127.605 121.5,114C 120.936,98.1401 124.436,83.3067 132,69.5C 134.5,67 137,64.5 139.5,62C 142.893,60.38 146.226,58.88 149.5,57.5 Z M 349.5,57.5 C 365.167,56.0185 376.334,62.3519 383,76.5C 387.867,88.7015 390.034,101.368 389.5,114.5C 389.318,127.954 387.985,141.287 385.5,154.5C 364,149.805 342.334,145.972 320.5,143C 308.106,126.434 294.773,110.601 280.5,95.5C 300.201,76.7884 323.201,64.1217 349.5,57.5 Z M 254.5,118.5 C 257.056,119.543 259.223,121.21 261,123.5C 265.833,129 270.667,134.5 275.5,140C 262.167,139.333 248.833,139.333 235.5,140C 242.042,132.962 248.375,125.795 254.5,118.5 Z M 235.5,172.5 C 257.883,172.118 280.216,172.951 302.5,175C 320.141,199.764 335.641,225.931 349,253.5C 349.667,254.833 349.667,256.167 349,257.5C 335.641,285.069 320.141,311.236 302.5,336C 271.167,340.667 239.833,340.667 208.5,336C 190.859,311.236 175.359,285.069 162,257.5C 161.333,256.167 161.333,254.833 162,253.5C 175.317,226.182 190.65,200.182 208,175.5C 217.234,174.187 226.401,173.187 235.5,172.5 Z M 160.5,180.5 C 161.873,180.343 163.207,180.51 164.5,181C 157.541,192.417 150.707,203.917 144,215.5C 140.327,205.981 137.16,196.315 134.5,186.5C 143.35,184.785 152.017,182.785 160.5,180.5 Z M 346.5,181.5 C 346.917,180.876 347.584,180.543 348.5,180.5C 357.847,182.504 367.181,184.504 376.5,186.5C 373.84,196.315 370.673,205.981 367,215.5C 360.392,203.937 353.559,192.604 346.5,181.5 Z M 101.5,196.5 C 108.274,216.403 115.941,236.069 124.5,255.5C 115.889,274.725 108.389,294.392 102,314.5C 80.2975,306.99 60.9641,295.657 44,280.5C 29.0785,264.45 28.7452,248.117 43,231.5C 60.0944,215.867 79.5944,204.2 101.5,196.5 Z M 408.5,196.5 C 430.925,203.955 450.758,215.622 468,231.5C 482.889,249.677 481.722,266.844 464.5,283C 447.935,296.705 429.435,307.205 409,314.5C 402.383,294.482 394.883,274.815 386.5,255.5C 395.02,236.274 402.353,216.607 408.5,196.5 Z M 143.5,295.5 C 150.6,306.853 157.6,318.353 164.5,330C 154.427,328.818 144.427,326.985 134.5,324.5C 137.302,314.762 140.302,305.095 143.5,295.5 Z M 366.5,295.5 C 370.603,304.805 373.936,314.471 376.5,324.5C 366.573,326.985 356.573,328.818 346.5,330C 353.557,318.718 360.224,307.218 366.5,295.5 Z M 125.5,356.5 C 147,361.195 168.666,365.028 190.5,368C 202.541,384.381 215.708,399.881 230,414.5C 230.667,415.167 230.667,415.833 230,416.5C 214.681,430.131 197.514,440.964 178.5,449C 147.395,460.544 128.895,450.044 123,417.5C 120.624,397.039 121.457,376.705 125.5,356.5 Z M 381.5,356.5 C 382.833,356.5 384.167,356.5 385.5,356.5C 388.2,370.201 389.867,384.035 390.5,398C 387.743,453.549 362.077,467.549 313.5,440C 301.489,433.151 290.489,424.984 280.5,415.5C 294.665,400.315 307.999,384.482 320.5,368C 341.209,365.44 361.542,361.607 381.5,356.5 Z M 235.5,371.5 C 248.669,371.653 262.002,371.486 275.5,371C 268.989,378.343 262.322,385.51 255.5,392.5C 248.812,385.48 242.145,378.48 235.5,371.5 Z"/></g>
<g><path style="opacity:1" fill="#8ab6ef" d="M 145.5,31.5 C 169.195,30.8975 191.195,36.7308 211.5,49C 227.057,58.6134 241.723,69.4467 255.5,81.5C 274.124,64.7266 294.79,50.8933 317.5,40C 331.244,33.9786 345.577,31.3119 360.5,32C 385.555,35.613 402.055,49.4463 410,73.5C 415.24,92.1491 416.906,111.149 415,130.5C 413.696,143.66 411.529,156.66 408.5,169.5C 436.941,177.883 462.275,191.716 484.5,211C 493.681,220.19 500.181,231.024 504,243.5C 506.741,258.566 504.074,272.566 496,285.5C 485.348,300.153 472.181,311.986 456.5,321C 441.16,329.498 425.16,336.331 408.5,341.5C 415.009,365.404 417.176,389.737 415,414.5C 412.906,429.89 407.906,444.223 400,457.5C 388.588,472.371 373.421,479.705 354.5,479.5C 337.398,478.967 321.398,474.467 306.5,466C 288.09,455.796 271.09,443.629 255.5,429.5C 234.935,448.541 211.602,463.375 185.5,474C 138.018,488.496 108.518,471.663 97,423.5C 92.8867,395.749 94.72,368.415 102.5,341.5C 74.5647,333.203 49.5647,319.703 27.5,301C 17.4791,291.468 10.6458,279.968 7,266.5C 5.33248,254.751 6.66581,243.418 11,232.5C 15.4933,223.685 21.3267,215.852 28.5,209C 50.4032,190.879 75.0699,177.712 102.5,169.5C 96.3654,145.22 94.1987,120.553 96,95.5C 97.9164,76.0494 105.416,59.216 118.5,45C 126.568,38.4871 135.568,33.9871 145.5,31.5 Z M 149.5,57.5 C 146.226,58.88 142.893,60.38 139.5,62C 137,64.5 134.5,67 132,69.5C 124.436,83.3067 120.936,98.1401 121.5,114C 121.845,127.605 123.178,141.105 125.5,154.5C 147,149.805 168.666,145.972 190.5,143C 202.894,126.434 216.227,110.601 230.5,95.5C 217.44,83.1267 202.773,72.96 186.5,65C 174.833,59.2333 162.5,56.7333 149.5,57.5 Z M 349.5,57.5 C 323.201,64.1217 300.201,76.7884 280.5,95.5C 294.773,110.601 308.106,126.434 320.5,143C 342.334,145.972 364,149.805 385.5,154.5C 387.985,141.287 389.318,127.954 389.5,114.5C 390.034,101.368 387.867,88.7015 383,76.5C 376.334,62.3519 365.167,56.0185 349.5,57.5 Z M 254.5,118.5 C 248.375,125.795 242.042,132.962 235.5,140C 248.833,139.333 262.167,139.333 275.5,140C 270.667,134.5 265.833,129 261,123.5C 259.223,121.21 257.056,119.543 254.5,118.5 Z M 235.5,172.5 C 226.401,173.187 217.234,174.187 208,175.5C 190.65,200.182 175.317,226.182 162,253.5C 161.333,254.833 161.333,256.167 162,257.5C 175.359,285.069 190.859,311.236 208.5,336C 239.833,340.667 271.167,340.667 302.5,336C 320.141,311.236 335.641,285.069 349,257.5C 349.667,256.167 349.667,254.833 349,253.5C 335.641,225.931 320.141,199.764 302.5,175C 280.216,172.951 257.883,172.118 235.5,172.5 Z M 160.5,180.5 C 152.017,182.785 143.35,184.785 134.5,186.5C 137.16,196.315 140.327,205.981 144,215.5C 150.707,203.917 157.541,192.417 164.5,181C 163.207,180.51 161.873,180.343 160.5,180.5 Z M 346.5,181.5 C 353.559,192.604 360.392,203.937 367,215.5C 370.673,205.981 373.84,196.315 376.5,186.5C 367.181,184.504 357.847,182.504 348.5,180.5C 347.584,180.543 346.917,180.876 346.5,181.5 Z M 101.5,196.5 C 79.5944,204.2 60.0944,215.867 43,231.5C 28.7452,248.117 29.0785,264.45 44,280.5C 60.9641,295.657 80.2975,306.99 102,314.5C 108.389,294.392 115.889,274.725 124.5,255.5C 115.941,236.069 108.274,216.403 101.5,196.5 Z M 408.5,196.5 C 402.353,216.607 395.02,236.274 386.5,255.5C 394.883,274.815 402.383,294.482 409,314.5C 429.435,307.205 447.935,296.705 464.5,283C 481.722,266.844 482.889,249.677 468,231.5C 450.758,215.622 430.925,203.955 408.5,196.5 Z M 143.5,295.5 C 140.302,305.095 137.302,314.762 134.5,324.5C 144.427,326.985 154.427,328.818 164.5,330C 157.6,318.353 150.6,306.853 143.5,295.5 Z M 366.5,295.5 C 360.224,307.218 353.557,318.718 346.5,330C 356.573,328.818 366.573,326.985 376.5,324.5C 373.936,314.471 370.603,304.805 366.5,295.5 Z M 125.5,356.5 C 121.457,376.705 120.624,397.039 123,417.5C 128.895,450.044 147.395,460.544 178.5,449C 197.514,440.964 214.681,430.131 230,416.5C 230.667,415.833 230.667,415.167 230,414.5C 215.708,399.881 202.541,384.381 190.5,368C 168.666,365.028 147,361.195 125.5,356.5 Z M 381.5,356.5 C 361.542,361.607 341.209,365.44 320.5,368C 307.999,384.482 294.665,400.315 280.5,415.5C 290.489,424.984 301.489,433.151 313.5,440C 362.077,467.549 387.743,453.549 390.5,398C 389.867,384.035 388.2,370.201 385.5,356.5C 384.167,356.5 382.833,356.5 381.5,356.5 Z M 235.5,371.5 C 242.145,378.48 248.812,385.48 255.5,392.5C 262.322,385.51 268.989,378.343 275.5,371C 262.002,371.486 248.669,371.653 235.5,371.5 Z"/></g>
<g><path style="opacity:0.947" fill="#4f7ab6" d="M 148.5,50.5 C 162.822,50.1057 176.489,52.9391 189.5,59C 208.576,68.5335 225.909,80.5335 241.5,95C 224.525,112.134 208.858,130.301 194.5,149.5C 169.712,151.909 145.379,156.575 121.5,163.5C 114.582,138.486 113.082,113.152 117,87.5C 120.291,68.7306 130.791,56.3973 148.5,50.5 Z M 149.5,57.5 C 146.226,58.88 142.893,60.38 139.5,62C 137,64.5 134.5,67 132,69.5C 124.436,83.3067 120.936,98.1401 121.5,114C 121.845,127.605 123.178,141.105 125.5,154.5C 147,149.805 168.666,145.972 190.5,143C 202.894,126.434 216.227,110.601 230.5,95.5C 217.44,83.1267 202.773,72.96 186.5,65C 174.833,59.2333 162.5,56.7333 149.5,57.5 Z"/></g>
<g><path style="opacity:0.949" fill="#4f7ab6" d="M 346.5,50.5 C 368.166,48.41 382.999,57.41 391,77.5C 394.881,88.6679 396.715,100.168 396.5,112C 395.704,129.331 393.704,146.498 390.5,163.5C 366.161,157.25 341.494,152.584 316.5,149.5C 302.142,130.301 286.475,112.134 269.5,95C 291.633,73.9374 317.299,59.1041 346.5,50.5 Z M 349.5,57.5 C 323.201,64.1217 300.201,76.7884 280.5,95.5C 294.773,110.601 308.106,126.434 320.5,143C 342.334,145.972 364,149.805 385.5,154.5C 387.985,141.287 389.318,127.954 389.5,114.5C 390.034,101.368 387.867,88.7015 383,76.5C 376.334,62.3519 365.167,56.0185 349.5,57.5 Z"/></g>
<g><path style="opacity:0.945" fill="#4f7ab5" d="M 254.5,108.5 C 258.737,111.228 262.571,114.561 266,118.5C 274.167,128 282.333,137.5 290.5,147C 267.156,146.449 243.822,146.449 220.5,147C 231.298,133.702 242.631,120.868 254.5,108.5 Z M 254.5,118.5 C 248.375,125.795 242.042,132.962 235.5,140C 248.833,139.333 262.167,139.333 275.5,140C 270.667,134.5 265.833,129 261,123.5C 259.223,121.21 257.056,119.543 254.5,118.5 Z"/></g>
<g><path style="opacity:0.944" fill="#4f7ab6" d="M 215.5,166.5 C 241.502,166.333 267.502,166.5 293.5,167C 297.871,167.172 302.204,167.672 306.5,168.5C 326.288,195.724 343.288,224.724 357.5,255.5C 343.274,286.308 326.274,315.308 306.5,342.5C 289.38,344.042 272.213,344.709 255,344.5C 238.118,344.717 221.284,344.051 204.5,342.5C 184.712,315.276 167.712,286.276 153.5,255.5C 167.712,224.724 184.712,195.724 204.5,168.5C 208.313,167.833 211.979,167.166 215.5,166.5 Z M 235.5,172.5 C 226.401,173.187 217.234,174.187 208,175.5C 190.65,200.182 175.317,226.182 162,253.5C 161.333,254.833 161.333,256.167 162,257.5C 175.359,285.069 190.859,311.236 208.5,336C 239.833,340.667 271.167,340.667 302.5,336C 320.141,311.236 335.641,285.069 349,257.5C 349.667,256.167 349.667,254.833 349,253.5C 335.641,225.931 320.141,199.764 302.5,175C 280.216,172.951 257.883,172.118 235.5,172.5 Z"/></g>
<g><path style="opacity:0.958" fill="#4f7bb6" d="M 172.5,171.5 C 174.604,171.201 176.604,171.534 178.5,172.5C 165.673,191.511 153.839,211.178 143,231.5C 136.277,215.497 130.443,199.164 125.5,182.5C 141,177.67 156.666,174.003 172.5,171.5 Z M 160.5,180.5 C 152.017,182.785 143.35,184.785 134.5,186.5C 137.16,196.315 140.327,205.981 144,215.5C 150.707,203.917 157.541,192.417 164.5,181C 163.207,180.51 161.873,180.343 160.5,180.5 Z"/></g>
<g><path style="opacity:0.96" fill="#4f7ab5" d="M 332.5,171.5 C 350.468,173.76 368.135,177.427 385.5,182.5C 380.36,199.419 374.527,216.086 368,232.5C 357.109,211.484 345.276,191.151 332.5,171.5 Z M 346.5,181.5 C 353.559,192.604 360.392,203.937 367,215.5C 370.673,205.981 373.84,196.315 376.5,186.5C 367.181,184.504 357.847,182.504 348.5,180.5C 347.584,180.543 346.917,180.876 346.5,181.5 Z"/></g>
<g><path style="opacity:0.948" fill="#4f7ab6" d="M 105.5,187.5 C 106.497,187.47 107.164,187.97 107.5,189C 114.32,211.462 122.32,233.462 131.5,255C 122.083,277.415 113.75,300.248 106.5,323.5C 85.1066,316.471 65.4399,306.305 47.5,293C 18.171,267.956 18.171,242.956 47.5,218C 65.3151,204.926 84.6484,194.759 105.5,187.5 Z M 101.5,196.5 C 79.5944,204.2 60.0944,215.867 43,231.5C 28.7452,248.117 29.0785,264.45 44,280.5C 60.9641,295.657 80.2975,306.99 102,314.5C 108.389,294.392 115.889,274.725 124.5,255.5C 115.941,236.069 108.274,216.403 101.5,196.5 Z"/></g>
<g><path style="opacity:0.95" fill="#4f7ab6" d="M 403.5,187.5 C 425.318,194.242 445.318,204.409 463.5,218C 492.829,242.956 492.829,267.956 463.5,293C 445.56,306.305 425.893,316.471 404.5,323.5C 397.25,300.248 388.917,277.415 379.5,255C 388.988,233.036 396.988,210.536 403.5,187.5 Z M 408.5,196.5 C 402.353,216.607 395.02,236.274 386.5,255.5C 394.883,274.815 402.383,294.482 409,314.5C 429.435,307.205 447.935,296.705 464.5,283C 481.722,266.844 482.889,249.677 468,231.5C 450.758,215.622 430.925,203.955 408.5,196.5 Z"/></g>
<g><path style="opacity:0.943" fill="#4f7ab6" d="M 246.5,210.5 C 283.611,209.444 301.444,227.444 300,264.5C 292.172,291.177 274.338,303.011 246.5,300C 219.823,292.172 207.989,274.338 211,246.5C 215.681,227.319 227.515,215.319 246.5,210.5 Z"/></g>
<g><path style="opacity:1" fill="#8ab6ef" d="M 246.5,217.5 C 278.841,216.008 294.341,231.342 293,263.5C 289.777,277.723 281.277,287.223 267.5,292C 242.395,297.196 225.895,287.696 218,263.5C 215.591,240.63 225.091,225.296 246.5,217.5 Z"/></g>
<g><path style="opacity:0.96" fill="#4f7bb6" d="M 142.5,279.5 C 143.458,279.953 144.292,280.619 145,281.5C 155.158,301.158 166.325,320.158 178.5,338.5C 177.5,338.833 176.5,339.167 175.5,339.5C 158.688,336.81 142.021,333.476 125.5,329.5C 130.036,312.433 135.703,295.766 142.5,279.5 Z M 143.5,295.5 C 140.302,305.095 137.302,314.762 134.5,324.5C 144.427,326.985 154.427,328.818 164.5,330C 157.6,318.353 150.6,306.853 143.5,295.5 Z"/></g>
<g><path style="opacity:0.961" fill="#4f7ab6" d="M 366.5,279.5 C 367.376,279.369 368.043,279.702 368.5,280.5C 375.568,296.37 381.234,312.704 385.5,329.5C 368.616,333.343 351.616,336.677 334.5,339.5C 333.833,339.167 333.167,338.833 332.5,338.5C 345.487,319.832 356.82,300.165 366.5,279.5 Z M 366.5,295.5 C 360.224,307.218 353.557,318.718 346.5,330C 356.573,328.818 366.573,326.985 376.5,324.5C 373.936,314.471 370.603,304.805 366.5,295.5 Z"/></g>
<g><path style="opacity:0.949" fill="#4f7ab6" d="M 120.5,347.5 C 144.723,354.316 169.389,358.982 194.5,361.5C 208.858,380.699 224.525,398.866 241.5,416C 220.717,436.23 196.384,450.563 168.5,459C 150.267,463.925 135.767,458.758 125,443.5C 117.629,429.255 114.129,414.088 114.5,398C 115.092,380.981 117.092,364.148 120.5,347.5 Z M 125.5,356.5 C 121.457,376.705 120.624,397.039 123,417.5C 128.895,450.044 147.395,460.544 178.5,449C 197.514,440.964 214.681,430.131 230,416.5C 230.667,415.833 230.667,415.167 230,414.5C 215.708,399.881 202.541,384.381 190.5,368C 168.666,365.028 147,361.195 125.5,356.5 Z"/></g>
<g><path style="opacity:0.949" fill="#4f7ab6" d="M 387.5,347.5 C 388.5,347.5 389.5,347.5 390.5,347.5C 394.806,367.948 396.639,388.615 396,409.5C 394.836,421.493 391.503,432.826 386,443.5C 378.453,454.525 367.953,460.192 354.5,460.5C 339.891,459.464 326.225,455.297 313.5,448C 297.713,438.881 283.046,428.214 269.5,416C 286.475,398.866 302.142,380.699 316.5,361.5C 333.887,358.993 351.22,356.16 368.5,353C 375.165,351.921 381.498,350.088 387.5,347.5 Z M 381.5,356.5 C 361.542,361.607 341.209,365.44 320.5,368C 307.999,384.482 294.665,400.315 280.5,415.5C 290.489,424.984 301.489,433.151 313.5,440C 362.077,467.549 387.743,453.549 390.5,398C 389.867,384.035 388.2,370.201 385.5,356.5C 384.167,356.5 382.833,356.5 381.5,356.5 Z"/></g>
<g><path style="opacity:0.943" fill="#4f7ab6" d="M 220.5,364.5 C 221.622,363.844 222.955,363.511 224.5,363.5C 234.634,364.651 244.801,365.318 255,365.5C 266.842,364.765 278.675,364.265 290.5,364C 279.728,377.607 268.061,390.441 255.5,402.5C 243.075,390.414 231.409,377.747 220.5,364.5 Z M 235.5,371.5 C 242.145,378.48 248.812,385.48 255.5,392.5C 262.322,385.51 268.989,378.343 275.5,371C 262.002,371.486 248.669,371.653 235.5,371.5 Z"/></g>
</svg>
