<?xml version="1.0" encoding="UTF-8"?>
<!DOCTYPE svg PUBLIC "-//W3C//DTD SVG 1.1//EN" "http://www.w3.org/Graphics/SVG/1.1/DTD/svg11.dtd">
<svg xmlns="http://www.w3.org/2000/svg" version="1.1" width="144px" height="144px" style="shape-rendering:geometricPrecision; text-rendering:geometricPrecision; image-rendering:optimizeQuality; fill-rule:evenodd; clip-rule:evenodd" xmlns:xlink="http://www.w3.org/1999/xlink">
<g><path style="opacity:0.968" fill="#00bad8" d="M 101.5,40.5 C 101.539,41.5832 101.873,42.5832 102.5,43.5C 89.9409,45.8681 77.6075,47.5348 65.5,48.5C 56.7344,44.9147 48.7344,46.0814 41.5,52C 40.2068,52.49 38.8734,52.6567 37.5,52.5C 40.1912,39.9737 47.8578,32.1403 60.5,29C 73.849,26.1437 86.1823,28.477 97.5,36C 99.0414,37.3712 100.375,38.8712 101.5,40.5 Z"/></g>
<g><path style="opacity:0.976" fill="#00b3d1" d="M 101.5,40.5 C 105.332,44.1638 109.332,47.6638 113.5,51C 114.745,51.7914 116.078,52.2914 117.5,52.5C 117.5,53.5 117.5,54.5 117.5,55.5C 104.029,56.7637 91.0287,58.4304 78.5,60.5C 74.1407,56.4718 69.8073,52.4718 65.5,48.5C 77.6075,47.5348 89.9409,45.8681 102.5,43.5C 101.873,42.5832 101.539,41.5832 101.5,40.5 Z"/></g>
<g><path style="opacity:0.968" fill="#00adcb" d="M 78.5,60.5 C 91.0287,58.4304 104.029,56.7637 117.5,55.5C 117.5,54.5 117.5,53.5 117.5,52.5C 124.987,54.7163 131.653,53.2163 137.5,48C 138.793,47.51 140.127,47.3433 141.5,47.5C 138.661,60.5053 130.661,68.3387 117.5,71C 109.436,71.8633 101.436,71.53 93.5,70C 87.7921,67.8205 82.7921,64.6538 78.5,60.5 Z"/></g>
<g><path style="opacity:0.955" fill="#00abc8" d="M 60.5,79.5 C 42.5101,82.9057 24.3435,85.9057 6,88.5C 6.10852,87.2312 5.94185,86.2312 5.5,85.5C 10.0976,78.0903 16.7643,73.5903 25.5,72C 34.6576,70.9072 43.6576,71.5739 52.5,74C 55.6207,75.3063 58.2874,77.1397 60.5,79.5 Z"/></g>
<g><path style="opacity:0.957" fill="#00a6c3" d="M 60.5,79.5 C 64.1002,81.4302 67.1002,84.0969 69.5,87.5C 68.2617,87.81 68.2617,88.31 69.5,89C 57.5518,91.1602 45.5518,92.9936 33.5,94.5C 24.068,87.6749 14.7346,87.8415 5.5,95C 4.20677,95.49 2.87344,95.6567 1.5,95.5C 1.75158,91.6733 3.08491,88.3399 5.5,85.5C 5.94185,86.2312 6.10852,87.2312 6,88.5C 24.3435,85.9057 42.5101,82.9057 60.5,79.5 Z"/></g>
<g><path style="opacity:0.958" fill="#00a1be" d="M 69.5,87.5 C 75.7965,94.9886 83.7965,97.822 93.5,96C 96.5032,94.8338 99.1698,93.1672 101.5,91C 102.793,90.51 104.127,90.3433 105.5,90.5C 105.982,93.8306 104.982,96.4973 102.5,98.5C 83.2637,100.439 64.2637,103.106 45.5,106.5C 41.1667,102.833 37.1667,98.8333 33.5,94.5C 45.5518,92.9936 57.5518,91.1602 69.5,89C 68.2617,88.31 68.2617,87.81 69.5,87.5 Z"/></g>
<g><path style="opacity:0.943" fill="#009bb8" d="M 102.5,98.5 C 96.7788,109.041 87.7788,114.541 75.5,115C 64.2478,116.19 54.2478,113.357 45.5,106.5C 64.2637,103.106 83.2637,100.439 102.5,98.5 Z"/></g>
</svg>
