<?xml version="1.0" encoding="UTF-8"?>
<!DOCTYPE svg PUBLIC "-//W3C//DTD SVG 1.1//EN" "http://www.w3.org/Graphics/SVG/1.1/DTD/svg11.dtd">
<svg xmlns="http://www.w3.org/2000/svg" version="1.1" width="1200px" height="1283px" style="shape-rendering:geometricPrecision; text-rendering:geometricPrecision; image-rendering:optimizeQuality; fill-rule:evenodd; clip-rule:evenodd" xmlns:xlink="http://www.w3.org/1999/xlink">
<g><path style="opacity:0.997" fill="#f8be3b" d="M 680.5,-0.5 C 681.833,-0.5 683.167,-0.5 684.5,-0.5C 854.997,97.9141 1025.33,196.581 1195.5,295.5C 1138.36,327.902 1081.36,360.569 1024.5,393.5C 910.313,328.488 796.48,262.822 683,196.5C 682.601,196.728 682.435,197.062 682.5,197.5C 511.534,295.316 340.867,393.65 170.5,492.5C 113.636,459.569 56.6356,426.902 -0.5,394.5C -0.5,393.833 -0.5,393.167 -0.5,392.5C 226.763,261.892 453.763,130.892 680.5,-0.5 Z"/></g>
<g><path style="opacity:1" fill="#ed8e24" d="M 682.5,197.5 C 682.17,263.571 682.504,329.571 683.5,395.5C 683.5,460.5 683.5,525.5 683.5,590.5C 626.301,623.263 569.301,656.263 512.5,689.5C 511.667,624.001 511.167,558.335 511,492.5C 456.745,524.379 402.245,555.879 347.5,587C 344.734,588.371 342.401,590.204 340.5,592.5C 283.833,624.833 227.167,657.167 170.5,689.5C 170.5,623.833 170.5,558.167 170.5,492.5C 340.867,393.65 511.534,295.316 682.5,197.5 Z"/></g>
<g><path style="opacity:0.998" fill="#e55b2c" d="M 1024.5,393.5 C 1024.5,459.5 1024.5,525.5 1024.5,591.5C 910.969,525.902 797.302,460.569 683.5,395.5C 682.504,329.571 682.17,263.571 682.5,197.5C 682.435,197.062 682.601,196.728 683,196.5C 796.48,262.822 910.313,328.488 1024.5,393.5 Z"/></g>
<g><path style="opacity:0.999" fill="#ed8e24" d="M 1195.5,295.5 C 1195.67,361.168 1195.5,426.834 1195,492.5C 1138.38,525.89 1081.55,558.89 1024.5,591.5C 1024.5,525.5 1024.5,459.5 1024.5,393.5C 1081.36,360.569 1138.36,327.902 1195.5,295.5 Z"/></g>
<g><path style="opacity:0.998" fill="#e55b2c" d="M -0.5,394.5 C 56.6356,426.902 113.636,459.569 170.5,492.5C 170.5,558.167 170.5,623.833 170.5,689.5C 113.364,657.098 56.3644,624.431 -0.5,591.5C -0.5,525.833 -0.5,460.167 -0.5,394.5 Z"/></g>
<g><path style="opacity:0.997" fill="#e55b2c" d="M 512.5,689.5 C 568.832,722.669 625.499,755.335 682.5,787.5C 682.833,853.17 682.5,918.837 681.5,984.5C 625.129,951.634 568.629,918.967 512,886.5C 511.833,1018 511.333,1149.33 510.5,1280.5C 453.946,1247.97 397.446,1215.3 341,1182.5C 340.5,985.834 340.333,789.167 340.5,592.5C 342.401,590.204 344.734,588.371 347.5,587C 402.245,555.879 456.745,524.379 511,492.5C 511.167,558.335 511.667,624.001 512.5,689.5 Z"/></g>
<g><path style="opacity:0.997" fill="#f7be3b" d="M 683.5,590.5 C 740.53,623.01 797.197,656.01 853.5,689.5C 796.636,722.431 739.636,755.098 682.5,787.5C 625.499,755.335 568.832,722.669 512.5,689.5C 569.301,656.263 626.301,623.263 683.5,590.5 Z"/></g>
<g><path style="opacity:0.999" fill="#ec8d24" d="M 853.5,689.5 C 853.667,755.501 853.5,821.501 853,887.5C 796.408,919.767 740.075,952.434 684,985.5C 683.667,1051.17 683.333,1116.83 683,1182.5C 625.915,1215.63 568.748,1248.63 511.5,1281.5C 510.893,1281.38 510.56,1281.04 510.5,1280.5C 511.333,1149.33 511.833,1018 512,886.5C 568.629,918.967 625.129,951.634 681.5,984.5C 682.5,918.837 682.833,853.17 682.5,787.5C 739.636,755.098 796.636,722.431 853.5,689.5 Z"/></g>
</svg>
