<?xml version="1.0" encoding="UTF-8"?>
<!DOCTYPE svg PUBLIC "-//W3C//DTD SVG 1.1//EN" "http://www.w3.org/Graphics/SVG/1.1/DTD/svg11.dtd">
<svg xmlns="http://www.w3.org/2000/svg" version="1.1" width="512px" height="512px" style="shape-rendering:geometricPrecision; text-rendering:geometricPrecision; image-rendering:optimizeQuality; fill-rule:evenodd; clip-rule:evenodd" xmlns:xlink="http://www.w3.org/1999/xlink">
<g><path style="opacity:0.997" fill="#243472" d="M 280.5,87.5 C 280.5,87.8333 280.5,88.1667 280.5,88.5C 287.182,99.8689 293.848,111.202 300.5,122.5C 315.172,148.021 329.672,173.688 344,199.5C 347.036,219.617 338.869,232.45 319.5,238C 278.835,238.5 238.168,238.667 197.5,238.5C 184.518,237.93 175.018,231.93 169,220.5C 166.678,213.668 166.012,206.668 167,199.5C 181.328,173.688 195.828,148.021 210.5,122.5C 217.416,111.004 224.083,99.3374 230.5,87.5C 236.696,79.2341 245.029,74.9008 255.5,74.5C 265.971,74.9008 274.304,79.2341 280.5,87.5 Z"/></g>
<g><path style="opacity:0.974" fill="#52668d" d="M 230.5,87.5 C 224.083,99.3374 217.416,111.004 210.5,122.5C 165.165,122.333 119.832,122.5 74.5,123C 70.7587,124.738 67.592,127.238 65,130.5C 63.5055,214.418 63.0055,298.418 63.5,382.5C 53.8333,382.5 44.1667,382.5 34.5,382.5C 34.1667,382.5 33.8333,382.5 33.5,382.5C 33.3333,291.499 33.5,200.499 34,109.5C 36.608,97.2255 44.108,90.0589 56.5,88C 114.499,87.5 172.499,87.3333 230.5,87.5 Z"/></g>
<g><path style="opacity:0.973" fill="#52668d" d="M 280.5,88.5 C 280.5,88.1667 280.5,87.8333 280.5,87.5C 338.501,87.3333 396.501,87.5 454.5,88C 466.892,90.0589 474.392,97.2255 477,109.5C 477.5,200.499 477.667,291.499 477.5,382.5C 477.167,382.5 476.833,382.5 476.5,382.5C 466.833,382.5 457.167,382.5 447.5,382.5C 447.994,298.418 447.494,214.418 446,130.5C 443.313,126.806 439.813,124.306 435.5,123C 394.835,122.5 354.168,122.333 313.5,122.5C 309.167,122.5 304.833,122.5 300.5,122.5C 304.312,121.676 308.312,121.176 312.5,121C 309.541,116.249 306.707,111.416 304,106.5C 299.447,96.1023 291.614,90.1023 280.5,88.5 Z"/></g>
<g><path style="opacity:1" fill="#243b5d" d="M 280.5,88.5 C 291.614,90.1023 299.447,96.1023 304,106.5C 306.707,111.416 309.541,116.249 312.5,121C 308.312,121.176 304.312,121.676 300.5,122.5C 293.848,111.202 287.182,99.8689 280.5,88.5 Z"/></g>
<g><path style="opacity:1" fill="#f1d14c" d="M 250.5,90.5 C 257.451,89.4276 263.285,91.4276 268,96.5C 288.333,131.833 308.667,167.167 329,202.5C 331.493,212.984 327.66,219.817 317.5,223C 275.833,223.667 234.167,223.667 192.5,223C 180.889,216.915 178.389,208.082 185,196.5C 203.919,164.33 222.586,131.997 241,99.5C 243.406,95.5915 246.572,92.5915 250.5,90.5 Z"/></g>
<g><path style="opacity:1" fill="#253b5c" d="M 251.5,119.5 C 255.603,118.769 259.103,119.769 262,122.5C 262.667,138.167 262.667,153.833 262,169.5C 257.667,174.833 253.333,174.833 249,169.5C 248.333,153.833 248.333,138.167 249,122.5C 250.045,121.627 250.878,120.627 251.5,119.5 Z"/></g>
<g><path style="opacity:1" fill="#7bcbf1" d="M 210.5,122.5 C 195.828,148.021 181.328,173.688 167,199.5C 166.012,206.668 166.678,213.668 169,220.5C 175.018,231.93 184.518,237.93 197.5,238.5C 200.461,241.948 204.127,244.448 208.5,246C 255.5,246.667 302.5,246.667 349.5,246C 364.23,239.369 369.397,228.202 365,212.5C 347.557,182.608 330.39,152.608 313.5,122.5C 354.168,122.333 394.835,122.5 435.5,123C 439.813,124.306 443.313,126.806 446,130.5C 447.494,214.418 447.994,298.418 447.5,382.5C 319.5,382.5 191.5,382.5 63.5,382.5C 63.0055,298.418 63.5055,214.418 65,130.5C 67.592,127.238 70.7587,124.738 74.5,123C 119.832,122.5 165.165,122.333 210.5,122.5 Z"/></g>
<g><path style="opacity:1" fill="#4fabda" d="M 300.5,122.5 C 304.833,122.5 309.167,122.5 313.5,122.5C 330.39,152.608 347.557,182.608 365,212.5C 369.397,228.202 364.23,239.369 349.5,246C 302.5,246.667 255.5,246.667 208.5,246C 204.127,244.448 200.461,241.948 197.5,238.5C 238.168,238.667 278.835,238.5 319.5,238C 338.869,232.45 347.036,219.617 344,199.5C 329.672,173.688 315.172,148.021 300.5,122.5 Z"/></g>
<g><path style="opacity:1" fill="#283d5c" d="M 252.5,188.5 C 260.696,188.529 263.863,192.529 262,200.5C 259.839,204.124 256.672,205.291 252.5,204C 250.667,203.5 249.5,202.333 249,200.5C 247.593,195.643 248.76,191.643 252.5,188.5 Z"/></g>
<g><path style="opacity:1" fill="#ee9443" d="M 250.5,289.5 C 250.5,299.5 250.5,309.5 250.5,319.5C 246.091,328.358 239.425,330.525 230.5,326C 228.919,324.172 227.585,322.172 226.5,320C 202.5,319.667 178.5,319.333 154.5,319C 144.14,315.801 136.806,309.301 132.5,299.5C 136.534,287.303 144.867,279.803 157.5,277C 180.498,276.5 203.498,276.333 226.5,276.5C 228.305,266.091 234.305,262.591 244.5,266C 246.709,267.873 248.542,270.04 250,272.5C 250.499,278.157 250.666,283.824 250.5,289.5 Z"/></g>
<g><path style="opacity:1" fill="#eaedf1" d="M 379.5,321.5 C 363.084,329.312 346.084,335.979 328.5,341.5C 325.889,341.444 323.722,340.444 322,338.5C 318.871,333.074 315.371,327.907 311.5,323C 299.505,322.5 287.505,322.333 275.5,322.5C 275.5,311.833 275.5,301.167 275.5,290.5C 287.678,290.828 299.678,290.495 311.5,289.5C 314.891,285.072 318.058,280.406 321,275.5C 322.845,272.817 325.345,271.15 328.5,270.5C 345.543,276.68 362.376,283.347 379,290.5C 379.5,300.828 379.666,311.161 379.5,321.5 Z"/></g>
<g><path style="opacity:1" fill="#c8ced5" d="M 250.5,289.5 C 270.833,289.5 291.167,289.5 311.5,289.5C 299.678,290.495 287.678,290.828 275.5,290.5C 275.5,301.167 275.5,311.833 275.5,322.5C 267.167,322.5 258.833,322.5 250.5,322.5C 250.5,321.5 250.5,320.5 250.5,319.5C 250.5,309.5 250.5,299.5 250.5,289.5 Z"/></g>
<g><path style="opacity:1" fill="#cd6732" d="M 168.5,298.5 C 183.504,298.333 198.504,298.5 213.5,299C 220.648,302.742 221.315,307.408 215.5,313C 199.5,313.667 183.5,313.667 167.5,313C 162.003,307.683 162.336,302.85 168.5,298.5 Z"/></g>
<g><path style="opacity:1" fill="#cd6733" d="M 132.5,299.5 C 136.806,309.301 144.14,315.801 154.5,319C 178.5,319.333 202.5,319.667 226.5,320C 227.585,322.172 228.919,324.172 230.5,326C 239.425,330.525 246.091,328.358 250.5,319.5C 250.5,320.5 250.5,321.5 250.5,322.5C 250.666,328.176 250.499,333.843 250,339.5C 246.442,347.363 240.609,349.863 232.5,347C 230.126,344.961 228.126,342.628 226.5,340C 202.833,339.667 179.167,339.333 155.5,339C 151.085,337.957 147.085,336.124 143.5,333.5C 132.721,324.36 129.054,313.027 132.5,299.5 Z"/></g>
<g><path style="opacity:1" fill="#50acdb" d="M 143.5,333.5 C 147.085,336.124 151.085,337.957 155.5,339C 179.167,339.333 202.833,339.667 226.5,340C 228.126,342.628 230.126,344.961 232.5,347C 240.609,349.863 246.442,347.363 250,339.5C 250.499,333.843 250.666,328.176 250.5,322.5C 258.833,322.5 267.167,322.5 275.5,322.5C 287.505,322.333 299.505,322.5 311.5,323C 315.371,327.907 318.871,333.074 322,338.5C 323.722,340.444 325.889,341.444 328.5,341.5C 346.084,335.979 363.084,329.312 379.5,321.5C 380.323,318.023 380.823,314.356 381,310.5C 384.488,311.911 387.822,313.577 391,315.5C 391.667,325.833 391.667,336.167 391,346.5C 375.044,353.378 358.877,359.878 342.5,366C 340.5,366.667 338.5,366.667 336.5,366C 331.779,360.279 327.446,354.279 323.5,348C 302.836,347.5 282.169,347.333 261.5,347.5C 261.666,353.176 261.499,358.843 261,364.5C 257.628,371.433 252.128,373.933 244.5,372C 241.637,370.636 239.637,368.47 238.5,365.5C 215.174,364.667 191.84,364.167 168.5,364C 151.989,360.032 143.656,349.866 143.5,333.5 Z"/></g>
<g><path style="opacity:0.982" fill="#eaedf1" d="M 33.5,382.5 C 33.8333,382.5 34.1667,382.5 34.5,382.5C 90.3309,383.499 146.331,383.832 202.5,383.5C 202.13,389.925 202.63,396.258 204,402.5C 205.214,404.049 206.714,405.215 208.5,406C 239.833,406.667 271.167,406.667 302.5,406C 305.428,404.74 307.261,402.573 308,399.5C 308.499,394.177 308.666,388.844 308.5,383.5C 364.669,383.832 420.669,383.499 476.5,382.5C 476.833,382.5 477.167,382.5 477.5,382.5C 478.5,382.5 479.5,382.5 480.5,382.5C 482.355,384.033 484.188,385.7 486,387.5C 486.667,397.5 486.667,407.5 486,417.5C 482.833,426 477,431.833 468.5,435C 475.346,435.172 482.013,435.672 488.5,436.5C 332.833,436.667 177.166,436.5 21.5,436C 10.7197,434.376 3.38637,428.543 -0.5,418.5C -0.5,407.833 -0.5,397.167 -0.5,386.5C 1.01027,385.164 2.67694,383.997 4.5,383C 14.1609,382.5 23.8276,382.334 33.5,382.5 Z"/></g>
<g><path style="opacity:1" fill="#c6ccd4" d="M 34.5,382.5 C 44.1667,382.5 53.8333,382.5 63.5,382.5C 191.5,382.5 319.5,382.5 447.5,382.5C 457.167,382.5 466.833,382.5 476.5,382.5C 420.669,383.499 364.669,383.832 308.5,383.5C 308.666,388.844 308.499,394.177 308,399.5C 307.261,402.573 305.428,404.74 302.5,406C 271.167,406.667 239.833,406.667 208.5,406C 206.714,405.215 205.214,404.049 204,402.5C 202.63,396.258 202.13,389.925 202.5,383.5C 146.331,383.832 90.3309,383.499 34.5,382.5 Z"/></g>
<g><path style="opacity:1" fill="#c9cdd3" d="M 480.5,382.5 C 489.173,382.334 497.84,382.5 506.5,383C 508.687,384.025 510.354,385.525 511.5,387.5C 511.5,397.833 511.5,408.167 511.5,418.5C 507.387,428.937 499.72,434.937 488.5,436.5C 482.013,435.672 475.346,435.172 468.5,435C 477,431.833 482.833,426 486,417.5C 486.667,407.5 486.667,397.5 486,387.5C 484.188,385.7 482.355,384.033 480.5,382.5 Z"/></g>
</svg>
